<svg xmlns="http://www.w3.org/2000/svg" viewBox="0 0 32 32" fill="none">
  <rect width="32" height="32" rx="6" fill="#0d1117"/>
  <path d="M8 7h8.2c3.4 0 5.6 1.7 5.6 4.4 0 1.9-1 3.3-2.6 3.9 2 .4 3.4 2.1 3.4 4.3 0 3.1-2.5 5.4-6.2 5.4H8V7zm4.2 3.6v4.9h3.4c1.6 0 2.6-.8 2.6-2.4 0-1.6-1-2.5-2.7-2.5h-3.3zm0 8.4v5.4h4c1.9 0 3.1-1 3.1-2.7 0-1.8-1.2-2.7-3.3-2.7h-3.8z" fill="url(#g)"/>
  <defs>
    <linearGradient id="g" x1="8" y1="7" x2="26" y2="26" gradientUnits="userSpaceOnUse">
      <stop stop-color="#D9A136"/>
      <stop offset="1" stop-color="#F0C96F"/>
    </linearGradient>
  </defs>
</svg>
